<svg class="aboutIllustration" xmlns="http://www.w3.org/2000/svg" viewBox="0 0 452.07 119.72"><g fill="var(--colorAccent") id="Layer_2" data-name="Layer 2"><g id="Layer_1-2" data-name="Layer 1"><g id="text"><path d="M127.18,71.13c-1.72-1.31-3.14-2.36-4.54-3.44-3-2.28-3.58-5.37-2.57-8.71,1.1-3.63,3.94-5.49,7.59-5.85a21.16,21.16,0,0,1,5.6.4c2.09.36,2.83,1.78,2.28,3.83-.83,3.11-3.12,5.27-4.95,7.74-.21.28-.44.55-.8,1,1.55.93,3,1.79,4.47,2.68s2.94,1.81,4.41,2.71c.82.5,1.38.44,1.79-.61.51-1.29,1.24-2.5,1.9-3.79-1.33-.81-2.71-1.56-4-2.44s-2.79-1.91-2.45-3.68,2.05-2.41,3.74-2.54c5-.39,10-.72,15-1,.87-.06,1.75,0,2.76,0-.38-2-.76-3.69-1.05-5.43a6,6,0,0,1,4-6.94A22.3,22.3,0,0,1,174,44.63c6.4,1.83,12.07,4.94,16.4,10.16a16.84,16.84,0,0,1,3.79,9.11c.22,1.94,1.12,3.8,1.45,5.73a32.84,32.84,0,0,1,.34,5.61c0,1,.36,1.38,1.22,1.39,2,0,4.08,0,6.1-.1,1.13-.07,1.78-.65,1.85-2A85.71,85.71,0,0,1,212,44.58a42.48,42.48,0,0,1,4.06-7,4.43,4.43,0,0,1,5.32-2,2.86,2.86,0,0,1,2,3.18c-.58,3.6-1.23,7.19-1.62,10.81-.78,7.23-1.56,14.49-4.15,21.31a24.16,24.16,0,0,0-1.24,9.65q.21,7.21,0,14.43a14.88,14.88,0,0,1-3.75,9.59,5.73,5.73,0,0,0-2.92-5.18c-1.94-1.36-2.54-3.7-3-5.88-.62-2.79-.9-5.65-1.33-8.48-.05-.3-.09-.61-.16-1.07-2.9,0-5.75,0-8.61,0a2.24,2.24,0,0,1-.92-.17c-1-.45-1.45,0-1.87.92a11.87,11.87,0,0,1-4,5.14c-.72.49-1,1.7-1.35,2.64a18.56,18.56,0,0,0-.54,3.15,2.82,2.82,0,0,1-.23-1.44,5.19,5.19,0,0,0-2.59-5c-1.77-1.14-1.87-3.91-.2-4.8,1.43-.77,1.81-2,2.53-3.19.52-.84.21-1.37-.35-2.16a8,8,0,0,0-8.57-3.57,21.51,21.51,0,0,1-4.14-.19c.17.8.27,1.65.52,2.45,1,3.09,1.75,6.26,3,9.24,1.37,3.31-.4,5.58-2.23,7.72a4.49,4.49,0,0,0-1.28,3.15,17.09,17.09,0,0,1-.35,4.13,54.22,54.22,0,0,0-7.07-20L164.85,92c-.23-1.51-.44-2.87-.64-4.24-.35,0-.53,0-.64,0a15.84,15.84,0,0,1-8.43,2c-4.54,0-4.91,1.16-5.73,4.82a35.71,35.71,0,0,0-1.67-4.28A10.3,10.3,0,0,0,145.6,88c-.4-.4-1.06-.58-1.37-1-1.27-1.8-2.68-1.43-4.56-.93a50.08,50.08,0,0,1-8.5,1.13c-2,.18-2.69.66-2.92,2.62-.21,1.79-.15,4.2-.33,6,.38-11.93-.31-4.75-.44,3.6-.11-1.45-.6-7.1-.58-8.54,0-2.6-.73-4-3.07-5-.71-.32-1.41-.65-2.15-1-.9,1-1.7,2-2.64,2.89a12.56,12.56,0,0,1-6.67,3.22c-2.15.36-4.42.84-5.53,3a16.61,16.61,0,0,0-.92,3.72c-.18.79-.69,2.36-.86,3.15-.16,0,0-.81-.15-.83,0-.48,0-1,.07-1.44.12-2.13.39-4.35-1.29-6a12,12,0,0,0-3.14-2.29,25,25,0,0,1-7.55-5c.08,1.1.15,2.2.25,3.29a12.59,12.59,0,0,1-2.06,8.3,6.09,6.09,0,0,0-.82,2.31c-.23,1.4-.31,2.83-.6,4.23-.09-1.59-.13-3.18-.29-4.76a1.74,1.74,0,0,0-.7-1.26c-.3-.14-1,.19-1.27.53-.69.92-1.36,2.52-2,3.59a6.06,6.06,0,0,1-.23-.77c-.71-2.49-2.84-2.8-4.89-3.1-3.09-.45-6.2-.75-9.36-1.13-.27.49-.86.8-1.21,1.44-.18,0-.17,1.74-.36,1.75-.47-3.36-1.13-4.15-2.75-4.66-10-3.14-19.95-6.22-29.85-9.57A169.83,169.83,0,0,0,7.44,78.58c-2.57-.39-3,.76-3.4,2.72a14.08,14.08,0,0,0,0,2.34,1.15,1.15,0,0,1-.58,1,7.84,7.84,0,0,1-.31-1.76c.11-2-1.07-3.45-2.14-4.89C-.4,76.05-.17,74.1.69,72.19a4.11,4.11,0,0,1,4.52-2.43c3.68.43,7.34,1,11,1.53C26,72.77,35.86,74.18,45.65,75.8a154.49,154.49,0,0,1,23.91,6.32,2.57,2.57,0,0,1,1.62,3c-.25,1.49-.52,3-.62,4.47a1.48,1.48,0,0,0,.82,1.18A29.41,29.41,0,0,0,84.68,92c2.27-.36,2.59-.84,2.31-3.13-.6-4.81-2.73-9.08-4.71-13.4C80.5,71.6,78.59,67.77,76.66,64c-.23-.46-1-1-1.4-1-6.73,1.66-13.59,1.58-20.43,1.57a80.74,80.74,0,0,1-27.29-4.21c-4.35-1.56-8.45-3.82-12.66-5.77-.55-.26-1.08-.58-1.73-.94l-1.42,4c-.8-2-1.45-3.77-.91-5.55A2.89,2.89,0,0,1,13,50.7a16.56,16.56,0,0,1,4.65.41c5.25,1.17,10.43,2.71,15.72,3.64a127.29,127.29,0,0,0,34.21,1.3c1.64-.15,3.29-.37,5.17-.59L72,53.69c-2.67-6.37-5.41-12.76-6.32-19.63-.7-5.28-.64-10.66,1.56-15.72,1.09-2.5,2.93-3.65,5.84-3.87,4.49-.34,7.23,2,9.53,5.18a44.84,44.84,0,0,1,8.08,20,60.84,60.84,0,0,1,.66,10.44,11.59,11.59,0,0,1-1.86,5.21c-1.27,2.1-2.34,4.15-2.23,6.68,0,.48-.4,1-.62,1.46a5,5,0,0,1-1.06-1.16c-.44-1-.73-2-1.15-3.26L82,60.26l3.86,7.85.45-.3c.38,1.19.66,2.38,1.13,3.5,1,2.3,2.07,4.55,3.26,7.14a10.85,10.85,0,0,0,.21-1.24,16.3,16.3,0,0,1,3.35-9.76A2,2,0,0,0,94.67,66c-.69-3.51,2.19-5.62,4.66-6,10.14-1.69,16.92.75,22,10.17.52,1,1,1.3,2,1.18S125.68,71.2,127.18,71.13ZM78.83,53.49a11.73,11.73,0,0,0,8.52-9.94c1.2-7.12-.73-13.67-3.92-19.93a14.39,14.39,0,0,0-4.92-6c-3.31-2.08-7.06-.61-7.33,3.22-.29,4-.61,8.27.27,12.15C72.72,38.56,75,43.88,77,49.29,77.45,50.7,78.17,52,78.83,53.49Zm94.81,15a15.51,15.51,0,0,0,2.54.25c1.84-.14,3.66-.41,5.49-.61a8.25,8.25,0,0,1,2.4-.21,3.48,3.48,0,0,0,4.28-3.51,9.09,9.09,0,0,0-2.17-5.57,25.5,25.5,0,0,0-8.65-6.58,24.05,24.05,0,0,0-14.93-2.1c-1.26.19-1.86.82-1.73,2.1s.23,2.6.36,3.9c.08.81.51,1.15,1.36,1.12,1.77-.06,3.55-.09,5.32,0,3,.11,4.48,1.52,4.89,4.47C173.11,64,173.37,66.31,173.64,68.52Zm-69.13,5.39c-.14,0,0,1.59-.13,1.58-.1-1-.18-2-.31-3.07a3,3,0,0,0-3.76-2.22,1.33,1.33,0,0,0-.51.56c-2.63,4.63-.46,10.1,4.67,11.34,2.21.54,4.55.49,6.81.83a7.29,7.29,0,0,0,5.14-1.44,1.19,1.19,0,0,0,.48-1.81c-.87-1.86-1.3-4,0-5.66s.74-2.78-.24-3.93a21.76,21.76,0,0,0-4-3.93c-2.66-1.82-5.76-1.7-9-1.53.29.59.48.9.61,1.24s.2.81.37,1.19a3.11,3.11,0,0,0,.7,1.25c1.87,1.43,1.93,1.59.91,3.73-.22-1.35-.79-1.41-1.23-1.59-.09,0-.2,0-.29.06C104.79,72.18,104.51,72.24,104.51,73.91Zm36.35-11.06-.07.49c6.6,3.5,13.8,5.16,21.3,6.89-1-2.65-1.77-5-2.71-7.22a1.79,1.79,0,0,0-1.4-.76c-5,.11-10,.29-15,.45C142.26,62.73,141.56,62.8,140.86,62.85ZM146.74,77c.42,2.59,1.63,4.43,3.94,5a29.25,29.25,0,0,0,7.11.65,11.34,11.34,0,0,0,4.27-1.22,2.59,2.59,0,0,0,1.28-1.9,2.25,2.25,0,0,0-1.41-1.59A27.69,27.69,0,0,0,156,76.8c-2.54-.13-5.09.13-7.64.21C147.9,77,147.4,77,146.74,77Zm-24.09,0c2.51,4.49,11.66,4.4,17.09,3.14-.12-1-.24-2-.36-3.05-1.56,0-2.76-.37-3.5-1.79-.17-.31-1-.47-1.45-.4-3.19.49-6.37,1.06-9.56,1.62C124.17,76.62,123.48,76.8,122.65,77ZM51.92,84.9l17.69,5.56c0-1,0-1.58,0-2.15-.21-3.11-.84-3.63-3.94-3.47-1.66.09-3.33,0-5,.06Zm81.15-28a42.15,42.15,0,0,0-4.19.77c-2.42.72-3.61,2.15-3.54,4s1.72,2.28,2.79,3.45A18.41,18.41,0,0,0,133.07,56.87ZM162.72,62c1.47,3.09,2.81,5.94,4.16,8.78l.59-.16V62Zm51.57,3.66.49,0,2.76-18.2-.64-.09C215,53.35,213.4,59.32,214.29,65.68ZM165.34,78.39l-1.44-3.34-2.73,1.45Zm-17.68-6.52h4.73C149.1,70.13,149.1,70.13,147.66,71.87Z"/><path d="M360.8,67.72a3.25,3.25,0,0,0,.42-.59c1.91-3.95,3.8-7.91,5.7-11.86.2-.42.32-1,.66-1.22.73-.44,1.62-1.06,2.35-.95a1.74,1.74,0,0,1,1.3,2.44c-1.08,3.49-2.23,7-3.36,10.42-2.44,7.44-4.92,14.87-7.3,22.32a27.77,27.77,0,0,0-.64,4.16,9.9,9.9,0,0,0,6.87-1c3-1.39,5.92-2.86,8.85-4.37a1.9,1.9,0,0,0,.9-1.23c.32-3,.54-6,.81-9.18-1.2-.23-2.77-.54-4.34-.81-1-.18-1.29.42-1.37,1.26-.06.57-.17,1.13-.26,1.69l-.42,0a43.87,43.87,0,0,1-1.76-4.43c-.68-2.47.83-4.2,3.37-4.13,2.19.07,4.39.12,6.58.06a2,2,0,0,0,1.47-.79c1.95-4.22,3.8-8.48,5.66-12.66-2.64-1.21-5.29-2.21-7.71-3.61A6.72,6.72,0,0,1,376,50.15c-.84-2,1.31-4.43,3.37-3.71,11,3.86,22.32,2.69,33.56,2.36,9-.25,18-1.16,27.05-1.77,2.3-.15,4.59-.37,6.89-.37,4.66,0,5.54,2.64,5.11,6.18a4.87,4.87,0,0,1-1.92,2.57,6.32,6.32,0,0,0-2.13,4.05c-.34,1.81-.52,3.66-.7,5.5-.08.82,0,1.65,0,2.48a23.11,23.11,0,0,0-.44,3c-.12-.26-.4-2.34-.44-2.61q-.48-3.77-.93-7.55c-.24-1.95-1-2.27-2.82-3-3.14-1.2-6.14-.13-9.2,0-8.23.45-16.47,1-24.7,1.49-.5,0-1,0-1.59,0a47.17,47.17,0,0,1,4.54,4.82c2,2.77,2,6.67-1.28,8.75a28.88,28.88,0,0,1-12,4.22c-3.36.4-6.77.44-10.16.58-.87,0-1.39.25-1.49,1.19-.19,1.75-.4,3.51-.65,5.26-.22,1.56.6,2.13,2,2.36a23.56,23.56,0,0,0,13.19-1.63c.68-.28,1.33-.61,2-1,2.54-1.35,2.73-2.62.71-4.68l.21-.36a11.61,11.61,0,0,1,2.64,1.6c2.48,2.57,2.67,5.71.71,8.73a17.39,17.39,0,0,1-6.78,5.66,7.4,7.4,0,0,0-4,5.8c-.21,1.38-.38,2.77-.68,4.13-.08.37-.55.65-.84,1-.25-.28-.6-.51-.72-.84-.65-1.83-1.3-3.67-1.85-5.53A3.51,3.51,0,0,0,389.43,96c-3-.29-5.9-.78-8.49-2.49a1.54,1.54,0,0,0-1.34.26c-3.85,3.07-8.28,5-12.81,6.82-2.64,1.06-5.08,2.74-5.82,5.84a7.23,7.23,0,0,0,.08,2c0,.46-.28,2.23-.28,2.68-.18,0-.07-1.26-.24-1.24-.24-.84-.54-1.68-.71-2.54-.55-2.77-2.23-4.82-4.22-6.69-2.38-2.23-4.51-4.6-3.63-7.93-3.22.25-6.34.8-9.41.62a36,36,0,0,1-7.69-1.85,1.45,1.45,0,0,0-1.75.33c-1.82,1.79-3.72,3.51-5.63,5.21-.53.47-1.25.74-1.78,1.21-.95.85-2,1.65-1.87,3.17a3,3,0,0,1-.19.91l-.41,0a10.33,10.33,0,0,1-.48-1.49A5.83,5.83,0,0,0,317.85,96c-7.07-1.46-12-8.57-11.55-14.32a2.09,2.09,0,0,0-.75-1.54c-4.72-3.78-4.1-10.38,0-14a21.17,21.17,0,0,1,18.53-5A15,15,0,0,1,328.39,63c.76.42,1.2.54,1.89-.07a87.23,87.23,0,0,1,6.65-5.69c3.32-2.42,6.87-4.2,11.26-4a10.7,10.7,0,0,1,10.23,7.16C359.41,62.7,360,65.23,360.8,67.72ZM389.23,70a4.09,4.09,0,0,0,.8.17c3.12-.16,6.26-.2,9.36-.55a75.35,75.35,0,0,0,9.06-1.6c1.95-.46,2.49-2.14,1.27-3.75a31.42,31.42,0,0,0-3.88-4,4.67,4.67,0,0,0-2.35-1.4c-3.16-.34-6.35-.46-9.52-.6a1.35,1.35,0,0,0-1.07.59C391.64,62.48,390.46,66.19,389.23,70Zm-34.46,1.49c-.22-2.85-.43-6-2.32-8.8a3.37,3.37,0,0,0-3.05-1.52c-3.14,0-5.38,1.79-7.61,3.61a1.51,1.51,0,0,0-.32,1.06c0,1.87,0,3.74.14,5.59,0,.45.38,1.19.69,1.25,3.69.71,7.38,1.34,11.09,1.93.93.15,1.49-.32,1.39-1.37C354.74,72.73,354.77,72.26,354.77,71.45Zm-30.12,7.09c.35-2.9.56-5.38,1-7.84.38-2.28-.15-3.15-2.56-3.08a29.08,29.08,0,0,0-6,.74c-3,.72-4.17,2.39-4.1,5.37a1.65,1.65,0,0,0,.76,1.3C317.32,76.26,321,77.38,324.65,78.54Zm29.64-.42-4.6.63c-3,.42-6.07,1-9.12,1.21a4.57,4.57,0,0,0-3.2,1.21c-1.14,1.13-1.13,1.5.3,2.27,2.84,1.54,6,1.59,9.09,2C350.26,85.9,354.22,82.59,354.29,78.12Zm-26,7.75a12.15,12.15,0,0,0-2.4-.7c-2.86-.15-5.72-.16-8.58-.3a19,19,0,0,1-2.65-.49C317.17,89,324.18,90,328.3,85.87Zm11-18.09-.61-.06c-.46.87-1.52,2-1.27,2.55.41.84,1.68,1.27,2.59,1.87l.47-.37C340.05,70.44,339.66,69.11,339.27,67.78Z"/><path d="M263.41,47.74c-.48-.51-.75-.79-1-1.08-3.25-3.54-6.52-7.06-9.71-10.65a5.35,5.35,0,0,1-1.28-2.46,3,3,0,0,1,.61-2.23c.3-.34,1.38-.27,2,0,5.16,2.16,10.28,4.38,15.41,6.61,2.08.91,2.28,1.93,1,3.67-1.09-.63-2.12-1.32-3.22-1.83-3.4-1.59-6.83-3.11-10.47-4.47,1.35,1.2,2.64,2.47,4,3.61,7.27,5.88,15.22,10.49,24.48,12.45,2.75.58,5.57.82,8.35,1.25,1.07.17,1.56-.3,2-1.24A176.93,176.93,0,0,1,310.21,26c5.8-8.17,12.18-15.84,20.49-21.64A24.9,24.9,0,0,1,341.85.08a9.41,9.41,0,0,1,10,5.71,23.33,23.33,0,0,1,1.8,6.92,54.39,54.39,0,0,1-1.52,20.82c-2.76,9.47-9,15.83-17.88,19.79-9.74,4.35-19.87,7.06-30.62,7-.87,0-1.41.15-1.74,1.11-2.64,7.79-5,15.63-5.29,23.92a49.16,49.16,0,0,0,.53,8.57c.48,3.24,2.58,5.65,4.87,7.86a2,2,0,0,0,1.11.5,3,3,0,0,1,2.81,2.33,4.45,4.45,0,0,1-1.13,4,30.9,30.9,0,0,0-3.68,5.11c-.64,1.25-.55,2.88-.82,4.59-.2-.61-.33-1-.45-1.37-.71-2.15-1.39-4.3-2.16-6.42-.14-.38-.63-.68-1-.91-7-4.14-10.44-10.42-10.94-18.44-.1-1.64-.2-3.29-.31-5a47,47,0,0,1-4.65,5,29.06,29.06,0,0,1-18,7,41.33,41.33,0,0,0-8,1.34c-1.94.44-2.48,1.36-2.56,3.38-.09,2.31-.29,2.88-1.41,4-.11-.08-.29-.14-.34-.26q-2.59-6.37-5.18-12.77a3,3,0,0,0-.51-1c-4-4.38-4.22-9.71-3.78-15.18a53.14,53.14,0,0,1,4.33-17.72,27.58,27.58,0,0,1,7.27-10.27,10.32,10.32,0,0,1,9.5-2.32C262.39,47.64,262.74,47.65,263.41,47.74ZM305.54,52c.63,0,.93,0,1.22,0a72.48,72.48,0,0,0,25.56-7.44,23.83,23.83,0,0,0,12.47-15,48.34,48.34,0,0,0,1.87-15.31,22.58,22.58,0,0,0-.52-4.34c-.62-2.82-2.15-3.74-4.92-3a20.07,20.07,0,0,0-3.8,1.44c-4.24,2.12-7.46,5.49-10.58,8.94-7.41,8.2-13.09,17.55-17.91,27.45C307.79,47.1,306.73,49.45,305.54,52ZM248.3,78.05c0,1.46-.05,2.53,0,3.6.24,4.27,2.64,7,6.88,7.65,6.17.9,12.16.5,17.82-2.54,4.61-2.46,7.31-6.05,7.7-11.33a29.61,29.61,0,0,0-3.8-17C273.6,52.52,268,51.59,263.3,56a38,38,0,0,0-4.52,5c-2.34,3.09-4.47,6.33-4.89,10.35-.27,2.51.11,3,2.59,3.45,2.33.38,4.68.69,7,1-1.43,2.67-2.88,5.39-4.45,8.34-.27-.51-.5-.88-.66-1.28a2.74,2.74,0,0,0-2.89-2A9.28,9.28,0,0,1,248.3,78.05ZM291.57,60l-7.74-1.48a40.36,40.36,0,0,1,3.37,14.87Z"/><path d="M285.49,50.37c-.43-2-.83-4.1-1.3-6.13a13.66,13.66,0,0,1,.62-8.26,29.78,29.78,0,0,0,1.6-13.56c-.26-2.85-1.6-4.5-3.76-5a1.85,1.85,0,0,0-2.2.67,1.75,1.75,0,0,1-1,.75,2.71,2.71,0,0,1-1.81-.23,1.84,1.84,0,0,1-.32-1.65c2.19-6.16,8.64-5.78,11.85-3a11.31,11.31,0,0,1,3.89,7.15c1.07,7.69-.3,14.79-5,21.19-1.1,1.49-1.34,3.63-1.9,5.49a22.9,22.9,0,0,0-.46,2.65Z"/></g><g class="drip" id="drips1"><path d="M212.81,107.89a30.06,30.06,0,0,1,1.37,4.09c.08.51-.72,1.39-1.43,1.59-1.38.38-2-.5-1.92-1.21.25-1.53.82-5.31,1.27-6.82C212.33,105.56,212.62,107.3,212.81,107.89Z"/><path d="M173.85,104a7.06,7.06,0,0,0-.37,1.1c0,.13.19.37.38.42.37.11.55-.13.52-.32-.07-.41-.22-1.43-.34-1.84C174,103.37,173.9,103.84,173.85,104Z"/><path d="M149.31,98.14a9.41,9.41,0,0,0-.37,1.1c0,.14.2.38.39.43.37.1.55-.13.52-.33-.07-.41-.23-1.43-.35-1.83C149.44,97.51,149.36,98,149.31,98.14Z"/><path d="M149.06,101.67c-.11.14-.41.66-.24.83a.9.9,0,0,0,.51.22c.5.06.73-.07.69-.17s-.21-.86-.46-1A.7.7,0,0,0,149.06,101.67Z"/><path d="M212.81,107.89a30.06,30.06,0,0,1,1.37,4.09c.08.51-.72,1.39-1.43,1.59-1.38.38-2-.5-1.92-1.21.25-1.53.82-5.31,1.27-6.82C212.33,105.56,212.62,107.3,212.81,107.89Z"/><path d="M187.68,97.75a14.65,14.65,0,0,0-.74,2.21c-.05.28.38.76.77.86.75.21,1.11-.26,1-.65-.14-.83-.45-2.87-.69-3.69C187.94,96.49,187.78,97.44,187.68,97.75Z"/><path d="M164.68,93.75a14.65,14.65,0,0,0-.74,2.21c-.05.28.38.76.77.86.75.21,1.11-.26,1-.65-.14-.83-.45-2.87-.69-3.69C164.94,92.49,164.78,93.44,164.68,93.75Z"/><path d="M164.68,93.75a14.65,14.65,0,0,0-.74,2.21c-.05.28.38.76.77.86.75.21,1.11-.26,1-.65-.14-.83-.45-2.87-.69-3.69C164.94,92.49,164.78,93.44,164.68,93.75Z"/><path d="M173.85,104a7.06,7.06,0,0,0-.37,1.1c0,.13.19.37.38.42.37.11.55-.13.52-.32-.07-.41-.22-1.43-.34-1.84C174,103.37,173.9,103.84,173.85,104Z"/><path d="M173.25,110.23c-.15.34-.62,1.38-.32,1.68.09.1.44.65.88.69.86.1,1.07-.48,1-.66a13.92,13.92,0,0,1-.88-3.23C173.93,108.57,173.45,109.81,173.25,110.23Z"/></g><g class="drip" id="drips2"><path d="M127.35,102.68a16.61,16.61,0,0,0-.74,2.2c0,.28.39.76.77.87.75.2,1.11-.27,1-.66-.13-.82-.44-2.87-.69-3.69C127.61,101.42,127.45,102.36,127.35,102.68Z"/><path d="M127.72,97.24a7.85,7.85,0,0,0-.37,1.1c0,.14.19.38.38.43.38.1.55-.13.52-.33-.07-.41-.22-1.43-.34-1.83C127.85,96.61,127.77,97.08,127.72,97.24Z"/><path d="M104.34,79.07a8.29,8.29,0,0,0-.37,1.1c0,.13.2.37.39.42.37.11.55-.13.52-.32-.07-.41-.22-1.43-.35-1.84C104.47,78.44,104.39,78.91,104.34,79.07Z"/><path d="M104.09,82.59c-.11.15-.41.66-.24.83a1,1,0,0,0,.51.23c.5,0,.74-.07.69-.18s-.21-.85-.45-1A.83.83,0,0,0,104.09,82.59Z"/><path d="M106.13,74.62a13.77,13.77,0,0,0-.62,1.85c0,.23.33.63.65.72.63.17.93-.23.87-.55-.11-.69-.37-2.41-.58-3.09C106.35,73.56,106.22,74.35,106.13,74.62Z"/><path d="M104.93,103a12.89,12.89,0,0,0-.59,1.73c0,.22.31.59.61.68.59.16.87-.21.82-.52-.11-.64-.35-2.25-.54-2.89C105.13,102,105,102.71,104.93,103Z"/><path d="M85.43,103.93a7.43,7.43,0,0,0-.37,1.1c0,.13.19.37.38.43.38.1.55-.14.52-.33-.07-.41-.22-1.43-.34-1.84C85.56,103.3,85.48,103.77,85.43,103.93Z"/><path d="M90.13,106.29a18.1,18.1,0,0,1,.83,2.46c.05.31-.43.84-.87,1-.84.23-1.24-.3-1.17-.73.15-.92.5-3.2.78-4.11C89.84,104.89,90,105.94,90.13,106.29Z"/><path d="M86.46,65.71a7.43,7.43,0,0,0-.37,1.1c0,.14.19.37.38.43.38.1.56-.14.52-.33-.06-.41-.22-1.43-.34-1.84C86.59,65.08,86.51,65.55,86.46,65.71Z"/><path d="M86.21,69.23c-.12.15-.42.66-.25.83a1,1,0,0,0,.52.23c.49.06.62-.09.69-.17.22-.28-.33-1.36-.58-1.48C86.52,68.61,86.27,69.15,86.21,69.23Z"/><path d="M127.35,102.68a16.61,16.61,0,0,0-.74,2.2c0,.28.39.76.77.87.75.2,1.11-.27,1-.66-.13-.82-.44-2.87-.69-3.69C127.61,101.42,127.45,102.36,127.35,102.68Z"/><path d="M127.35,102.68a16.61,16.61,0,0,0-.74,2.2c0,.28.39.76.77.87.75.2,1.11-.27,1-.66-.13-.82-.44-2.87-.69-3.69C127.61,101.42,127.45,102.36,127.35,102.68Z"/><path d="M127.35,102.68a16.61,16.61,0,0,0-.74,2.2c0,.28.39.76.77.87.75.2,1.11-.27,1-.66-.13-.82-.44-2.87-.69-3.69C127.61,101.42,127.45,102.36,127.35,102.68Z"/><path d="M104.34,79.07a8.29,8.29,0,0,0-.37,1.1c0,.13.2.37.39.42.37.11.55-.13.52-.32-.07-.41-.22-1.43-.35-1.84C104.47,78.44,104.39,78.91,104.34,79.07Z"/><path d="M104.09,82.59c-.11.15-.41.66-.24.83a1,1,0,0,0,.51.23c.5,0,.74-.07.69-.18s-.21-.85-.45-1A.83.83,0,0,0,104.09,82.59Z"/><path d="M105.51,76.47c0,.23.33.63.65.72.63.17.93-.23.87-.55"/></g><g class="drip" id="drips3"><path d="M69.49,103.2a11.39,11.39,0,0,0-.61,1.82c0,.23.31.62.63.7.62.18.91-.22.86-.53-.12-.68-.37-2.36-.57-3C69.7,102.16,69.57,102.94,69.49,103.2Z"/><path d="M69.29,107c-.12.14-.42.65-.24.83a1,1,0,0,0,.51.22c.49.06.73-.07.69-.17s-.21-.86-.46-1A.7.7,0,0,0,69.29,107Z"/><path d="M11.81,61.48a7.85,7.85,0,0,0-.37,1.1c0,.14.19.38.39.43.37.11.55-.13.52-.33-.07-.41-.23-1.42-.35-1.83C11.94,60.85,11.86,61.32,11.81,61.48Z"/><path d="M11.56,65c-.12.14-.42.66-.24.83a.9.9,0,0,0,.51.22c.49.06.73-.07.69-.17s-.21-.86-.46-1A.7.7,0,0,0,11.56,65Z"/><path d="M3.9,87.71a7.83,7.83,0,0,1,.95,2.19c.07.66-.39,2.15-.95,2.19-.41,0-.79-1-.77-1.47A14.76,14.76,0,0,1,3.9,87.71Z"/><path d="M3.87,86.74c.74,1.63,1.28,2.2,1.37,3.15S4.66,93,3.86,93.06c-.59,0-1.14-1.44-1.12-2.12A20.46,20.46,0,0,1,3.87,86.74Z"/></g><g class="drip" id="drips4"><path d="M394.84,109.75a28.23,28.23,0,0,0-.77,3.16,1.53,1.53,0,0,0,.8,1.23c.77.3,1.15-.38,1.08-.94-.14-1.18-.46-4.1-.72-5.27A10.26,10.26,0,0,0,394.84,109.75Z"/><path d="M447.62,87.07a42.33,42.33,0,0,1,1,4.42,2.13,2.13,0,0,1-1,1.72c-1,.42-1.49-.53-1.4-1.31.18-1.65.6-5.74.92-7.37A14.36,14.36,0,0,1,447.62,87.07Z"/><path d="M361.53,113.61a1.87,1.87,0,0,1-.74,2.23.76.76,0,0,1-.77-.36c-.18-.9.9-1,.73-3.18C361,112.39,361.43,113.39,361.53,113.61Z"/><path d="M394.84,109.75a28.23,28.23,0,0,0-.77,3.16,1.53,1.53,0,0,0,.8,1.23c.77.3,1.15-.38,1.08-.94-.14-1.18-.46-4.1-.72-5.27A10.26,10.26,0,0,0,394.84,109.75Z"/><path d="M447.62,87.07a42.33,42.33,0,0,1,1,4.42,2.13,2.13,0,0,1-1,1.72c-1,.42-1.49-.53-1.4-1.31.18-1.65.6-5.74.92-7.37A14.36,14.36,0,0,1,447.62,87.07Z"/><path d="M447.27,76.85A32.13,32.13,0,0,1,448,80.2a1.63,1.63,0,0,1-.78,1.31c-.77.31-1.13-.41-1.07-1,.14-1.25.46-4.35.71-5.59A11.36,11.36,0,0,1,447.27,76.85Z"/><path d="M361.53,113.61a1.87,1.87,0,0,1-.74,2.23.76.76,0,0,1-.77-.36c-.18-.9.9-1,.73-3.18C361,112.39,361.43,113.39,361.53,113.61Z"/></g><g class="drip" id="drips5"><path d="M251.33,110.94a27.41,27.41,0,0,1,1.24,3.69c.07.46-.11,2.87-.75,3.05-1.25.34-2.39-2.06-2.28-2.71.23-1.37.74-4.79,1.15-6.15C250.9,108.84,251.16,110.41,251.33,110.94Z"/><path d="M323.39,119.08a25.48,25.48,0,0,1-.64-2.82c0-.28.28-.89.67-.93s.94.53.94.8c0,1-.7,2.62-.81,3.59C323.32,119.73,323.62,119.06,323.39,119.08Z"/><path d="M323.21,111.05c0-2.07-1.54-3.79.26-5.45C324.27,106.59,324.24,109.63,323.21,111.05Z"/><path d="M251.33,110.94a27.41,27.41,0,0,1,1.24,3.69c.07.46-.11,2.87-.75,3.05-1.25.34-2.39-2.06-2.28-2.71.23-1.37.74-4.79,1.15-6.15C250.9,108.84,251.16,110.41,251.33,110.94Z"/><path d="M300,121.85a26.48,26.48,0,0,0-1.24,3.69c-.07.46.11,2.86.75,3,1.25.35,2.39-2.05,2.28-2.7-.23-1.38-.74-4.79-1.15-6.16C300.4,119.74,300.14,121.32,300,121.85Z"/><path d="M300,121.85a26.48,26.48,0,0,0-1.24,3.69c-.07.46.11,2.86.75,3,1.25.35,2.39-2.05,2.28-2.7-.23-1.38-.74-4.79-1.15-6.16C300.4,119.74,300.14,121.32,300,121.85Z"/><path d="M300,121.85a26.48,26.48,0,0,0-1.24,3.69c-.07.46.11,2.86.75,3,1.25.35,2.39-2.05,2.28-2.7-.23-1.38-.74-4.79-1.15-6.16C300.4,119.74,300.14,121.32,300,121.85Z"/><path d="M300,121.85a26.48,26.48,0,0,0-1.24,3.69c-.07.46.11,2.86.75,3,1.25.35,2.39-2.05,2.28-2.7-.23-1.38-.74-4.79-1.15-6.16C300.4,119.74,300.14,121.32,300,121.85Z"/><path d="M323.39,119.08a25.48,25.48,0,0,1-.64-2.82c0-.28.28-.89.67-.93s.94.53.94.8c0,1-.7,2.62-.81,3.59C323.32,119.73,323.62,119.06,323.39,119.08Z"/><path d="M323.21,111.05c0-2.07-1.54-3.79.26-5.45C324.27,106.59,324.24,109.63,323.21,111.05Z"/></g><g class="drip" id="drips6"><path d="M212.81,107.89a30.06,30.06,0,0,1,1.37,4.09c.08.51-.72,1.39-1.43,1.59-1.38.38-2-.5-1.92-1.21.25-1.53.82-5.31,1.27-6.82C212.33,105.56,212.62,107.3,212.81,107.89Z"/><path d="M173.85,104a7.06,7.06,0,0,0-.37,1.1c0,.13.19.37.38.42.37.11.55-.13.52-.32-.07-.41-.22-1.43-.34-1.84C174,103.37,173.9,103.84,173.85,104Z"/><path d="M149.31,98.14a9.41,9.41,0,0,0-.37,1.1c0,.14.2.38.39.43.37.1.55-.13.52-.33-.07-.41-.23-1.43-.35-1.83C149.44,97.51,149.36,98,149.31,98.14Z"/><path d="M149.06,101.67c-.11.14-.41.66-.24.83a.9.9,0,0,0,.51.22c.5.06.73-.07.69-.17s-.21-.86-.46-1A.7.7,0,0,0,149.06,101.67Z"/><path d="M212.81,107.89a30.06,30.06,0,0,1,1.37,4.09c.08.51-.72,1.39-1.43,1.59-1.38.38-2-.5-1.92-1.21.25-1.53.82-5.31,1.27-6.82C212.33,105.56,212.62,107.3,212.81,107.89Z"/><path d="M187.68,97.75a14.65,14.65,0,0,0-.74,2.21c-.05.28.38.76.77.86.75.21,1.11-.26,1-.65-.14-.83-.45-2.87-.69-3.69C187.94,96.49,187.78,97.44,187.68,97.75Z"/><path d="M164.68,93.75a14.65,14.65,0,0,0-.74,2.21c-.05.28.38.76.77.86.75.21,1.11-.26,1-.65-.14-.83-.45-2.87-.69-3.69C164.94,92.49,164.78,93.44,164.68,93.75Z"/><path d="M164.68,93.75a14.65,14.65,0,0,0-.74,2.21c-.05.28.38.76.77.86.75.21,1.11-.26,1-.65-.14-.83-.45-2.87-.69-3.69C164.94,92.49,164.78,93.44,164.68,93.75Z"/><path d="M173.85,104a7.06,7.06,0,0,0-.37,1.1c0,.13.19.37.38.42.37.11.55-.13.52-.32-.07-.41-.22-1.43-.34-1.84C174,103.37,173.9,103.84,173.85,104Z"/><path d="M173.25,110.23c-.15.34-.62,1.38-.32,1.68.09.1.44.65.88.69.86.1,1.07-.48,1-.66a13.92,13.92,0,0,1-.88-3.23C173.93,108.57,173.45,109.81,173.25,110.23Z"/></g><g class="drip" id="drips7"><path d="M127.35,102.68a16.61,16.61,0,0,0-.74,2.2c0,.28.39.76.77.87.75.2,1.11-.27,1-.66-.13-.82-.44-2.87-.69-3.69C127.61,101.42,127.45,102.36,127.35,102.68Z"/><path d="M127.72,97.24a7.85,7.85,0,0,0-.37,1.1c0,.14.19.38.38.43.38.1.55-.13.52-.33-.07-.41-.22-1.43-.34-1.83C127.85,96.61,127.77,97.08,127.72,97.24Z"/><path d="M104.34,79.07a8.29,8.29,0,0,0-.37,1.1c0,.13.2.37.39.42.37.11.55-.13.52-.32-.07-.41-.22-1.43-.35-1.84C104.47,78.44,104.39,78.91,104.34,79.07Z"/><path d="M104.09,82.59c-.11.15-.41.66-.24.83a1,1,0,0,0,.51.23c.5,0,.74-.07.69-.18s-.21-.85-.45-1A.83.83,0,0,0,104.09,82.59Z"/><path d="M106.13,74.62a13.77,13.77,0,0,0-.62,1.85c0,.23.33.63.65.72.63.17.93-.23.87-.55-.11-.69-.37-2.41-.58-3.09C106.35,73.56,106.22,74.35,106.13,74.62Z"/><path d="M104.93,103a12.89,12.89,0,0,0-.59,1.73c0,.22.31.59.61.68.59.16.87-.21.82-.52-.11-.64-.35-2.25-.54-2.89C105.13,102,105,102.71,104.93,103Z"/><path d="M85.43,103.93a7.43,7.43,0,0,0-.37,1.1c0,.13.19.37.38.43.38.1.55-.14.52-.33-.07-.41-.22-1.43-.34-1.84C85.56,103.3,85.48,103.77,85.43,103.93Z"/><path d="M90.13,106.29a18.1,18.1,0,0,1,.83,2.46c.05.31-.43.84-.87,1-.84.23-1.24-.3-1.17-.73.15-.92.5-3.2.78-4.11C89.84,104.89,90,105.94,90.13,106.29Z"/><path d="M86.46,65.71a7.43,7.43,0,0,0-.37,1.1c0,.14.19.37.38.43.38.1.56-.14.52-.33-.06-.41-.22-1.43-.34-1.84C86.59,65.08,86.51,65.55,86.46,65.71Z"/><path d="M86.21,69.23c-.12.15-.42.66-.25.83a1,1,0,0,0,.52.23c.49.06.62-.09.69-.17.22-.28-.33-1.36-.58-1.48C86.52,68.61,86.27,69.15,86.21,69.23Z"/><path d="M127.35,102.68a16.61,16.61,0,0,0-.74,2.2c0,.28.39.76.77.87.75.2,1.11-.27,1-.66-.13-.82-.44-2.87-.69-3.69C127.61,101.42,127.45,102.36,127.35,102.68Z"/><path d="M127.35,102.68a16.61,16.61,0,0,0-.74,2.2c0,.28.39.76.77.87.75.2,1.11-.27,1-.66-.13-.82-.44-2.87-.69-3.69C127.61,101.42,127.45,102.36,127.35,102.68Z"/><path d="M127.35,102.68a16.61,16.61,0,0,0-.74,2.2c0,.28.39.76.77.87.75.2,1.11-.27,1-.66-.13-.82-.44-2.87-.69-3.69C127.61,101.42,127.45,102.36,127.35,102.68Z"/><path d="M104.34,79.07a8.29,8.29,0,0,0-.37,1.1c0,.13.2.37.39.42.37.11.55-.13.52-.32-.07-.41-.22-1.43-.35-1.84C104.47,78.44,104.39,78.91,104.34,79.07Z"/><path d="M104.09,82.59c-.11.15-.41.66-.24.83a1,1,0,0,0,.51.23c.5,0,.74-.07.69-.18s-.21-.85-.45-1A.83.83,0,0,0,104.09,82.59Z"/><path d="M105.51,76.47c0,.23.33.63.65.72.63.17.93-.23.87-.55"/></g><g class="drip" id="drips8"><path d="M69.49,103.2a11.39,11.39,0,0,0-.61,1.82c0,.23.31.62.63.7.62.18.91-.22.86-.53-.12-.68-.37-2.36-.57-3C69.7,102.16,69.57,102.94,69.49,103.2Z"/><path d="M69.29,107c-.12.14-.42.65-.24.83a1,1,0,0,0,.51.22c.49.06.73-.07.69-.17s-.21-.86-.46-1A.7.7,0,0,0,69.29,107Z"/><path d="M11.81,61.48a7.85,7.85,0,0,0-.37,1.1c0,.14.19.38.39.43.37.11.55-.13.52-.33-.07-.41-.23-1.42-.35-1.83C11.94,60.85,11.86,61.32,11.81,61.48Z"/><path d="M11.56,65c-.12.14-.42.66-.24.83a.9.9,0,0,0,.51.22c.49.06.73-.07.69-.17s-.21-.86-.46-1A.7.7,0,0,0,11.56,65Z"/><path d="M3.9,87.71a7.83,7.83,0,0,1,.95,2.19c.07.66-.39,2.15-.95,2.19-.41,0-.79-1-.77-1.47A14.76,14.76,0,0,1,3.9,87.71Z"/><path d="M3.87,86.74c.74,1.63,1.28,2.2,1.37,3.15S4.66,93,3.86,93.06c-.59,0-1.14-1.44-1.12-2.12A20.46,20.46,0,0,1,3.87,86.74Z"/></g><g class="drip" id="drips9"><path d="M394.84,109.75a28.23,28.23,0,0,0-.77,3.16,1.53,1.53,0,0,0,.8,1.23c.77.3,1.15-.38,1.08-.94-.14-1.18-.46-4.1-.72-5.27A10.26,10.26,0,0,0,394.84,109.75Z"/><path d="M447.62,87.07a42.33,42.33,0,0,1,1,4.42,2.13,2.13,0,0,1-1,1.72c-1,.42-1.49-.53-1.4-1.31.18-1.65.6-5.74.92-7.37A14.36,14.36,0,0,1,447.62,87.07Z"/><path d="M361.53,113.61a1.87,1.87,0,0,1-.74,2.23.76.76,0,0,1-.77-.36c-.18-.9.9-1,.73-3.18C361,112.39,361.43,113.39,361.53,113.61Z"/><path d="M394.84,109.75a28.23,28.23,0,0,0-.77,3.16,1.53,1.53,0,0,0,.8,1.23c.77.3,1.15-.38,1.08-.94-.14-1.18-.46-4.1-.72-5.27A10.26,10.26,0,0,0,394.84,109.75Z"/><path d="M447.62,87.07a42.33,42.33,0,0,1,1,4.42,2.13,2.13,0,0,1-1,1.72c-1,.42-1.49-.53-1.4-1.31.18-1.65.6-5.74.92-7.37A14.36,14.36,0,0,1,447.62,87.07Z"/><path d="M447.27,76.85A32.13,32.13,0,0,1,448,80.2a1.63,1.63,0,0,1-.78,1.31c-.77.31-1.13-.41-1.07-1,.14-1.25.46-4.35.71-5.59A11.36,11.36,0,0,1,447.27,76.85Z"/><path d="M361.53,113.61a1.87,1.87,0,0,1-.74,2.23.76.76,0,0,1-.77-.36c-.18-.9.9-1,.73-3.18C361,112.39,361.43,113.39,361.53,113.61Z"/></g><g class="drip" id="drips10"><path d="M251.33,110.94a27.41,27.41,0,0,1,1.24,3.69c.07.46-.11,2.87-.75,3.05-1.25.34-2.39-2.06-2.28-2.71.23-1.37.74-4.79,1.15-6.15C250.9,108.84,251.16,110.41,251.33,110.94Z"/><path d="M323.39,119.08a25.48,25.48,0,0,1-.64-2.82c0-.28.28-.89.67-.93s.94.53.94.8c0,1-.7,2.62-.81,3.59C323.32,119.73,323.62,119.06,323.39,119.08Z"/><path d="M323.21,111.05c0-2.07-1.54-3.79.26-5.45C324.27,106.59,324.24,109.63,323.21,111.05Z"/><path d="M251.33,110.94a27.41,27.41,0,0,1,1.24,3.69c.07.46-.11,2.87-.75,3.05-1.25.34-2.39-2.06-2.28-2.71.23-1.37.74-4.79,1.15-6.15C250.9,108.84,251.16,110.41,251.33,110.94Z"/><path d="M300,121.85a26.48,26.48,0,0,0-1.24,3.69c-.07.46.11,2.86.75,3,1.25.35,2.39-2.05,2.28-2.7-.23-1.38-.74-4.79-1.15-6.16C300.4,119.74,300.14,121.32,300,121.85Z"/><path d="M300,121.85a26.48,26.48,0,0,0-1.24,3.69c-.07.46.11,2.86.75,3,1.25.35,2.39-2.05,2.28-2.7-.23-1.38-.74-4.79-1.15-6.16C300.4,119.74,300.14,121.32,300,121.85Z"/><path d="M300,121.85a26.48,26.48,0,0,0-1.24,3.69c-.07.46.11,2.86.75,3,1.25.35,2.39-2.05,2.28-2.7-.23-1.38-.74-4.79-1.15-6.16C300.4,119.74,300.14,121.32,300,121.85Z"/><path d="M300,121.85a26.48,26.48,0,0,0-1.24,3.69c-.07.46.11,2.86.75,3,1.25.35,2.39-2.05,2.28-2.7-.23-1.38-.74-4.79-1.15-6.16C300.4,119.74,300.14,121.32,300,121.85Z"/><path d="M323.39,119.08a25.48,25.48,0,0,1-.64-2.82c0-.28.28-.89.67-.93s.94.53.94.8c0,1-.7,2.62-.81,3.59C323.32,119.73,323.62,119.06,323.39,119.08Z"/><path d="M323.21,111.05c0-2.07-1.54-3.79.26-5.45C324.27,106.59,324.24,109.63,323.21,111.05Z"/></g></g></g></svg>